<svg id="91e6babc-cf6e-44c8-8517-c07b21b84277" data-name="Logo" xmlns="http://www.w3.org/2000/svg" viewBox="0 0 163.29 163.29"><title>Logo</title><path d="M153.29,10S135,0,81.65,0,10,10,10,10,0,28.33,0,81.64s10,71.65,10,71.65,18.33,10,71.65,10,71.64-10,71.64-10,10-18.33,10-71.65S153.29,10,153.29,10ZM132.76,87.34l0,.11c-.17.33-.51,1-1,2.07s-1.24,2.39-2.07,3.8-1.83,2.92-3,4.46a30.33,30.33,0,0,1-3.88,4.42,21.83,21.83,0,0,1-4.74,3.4,12.38,12.38,0,0,1-5.81,1.45,10.56,10.56,0,0,1-7.46-2.85,14.83,14.83,0,0,1-2.62-3.27,18.67,18.67,0,0,1-3.51,3.28,11.82,11.82,0,0,1-12,1.45,11.1,11.1,0,0,1-3.89-2.9A12.81,12.81,0,0,1,81,100c-.63.73-1.3,1.44-2,2.1a20.49,20.49,0,0,1-4.7,3.46,12.06,12.06,0,0,1-5.72,1.45,9.92,9.92,0,0,1-5.77-1.58,10.4,10.4,0,0,1-3.35-3.81,15.45,15.45,0,0,1-1.51-4.82,31.59,31.59,0,0,1-.37-4.79c0-.79,0-1.65.1-2.55s.14-1.73.22-2.59.16-1.59.22-2.31.09-1.23.09-1.67a6.65,6.65,0,0,0-.08-1.15,3.87,3.87,0,0,0-.61.47A19.39,19.39,0,0,0,55.06,85a48.21,48.21,0,0,0-2.7,4Q51,91.38,49.67,93.66c-.86,1.52-1.65,3-2.34,4.33l-1.74,3.46a10.87,10.87,0,0,1-3.33,4.29,6.16,6.16,0,0,1-4.44,1.18l-.15.32v-.34a5.24,5.24,0,0,1-3.55-2.32,8.52,8.52,0,0,1-1.37-4.84V95.8q0-11.82,0-22.54c0-7.11.13-13.84.31-20s.51-11.81,1-16.8a85.7,85.7,0,0,1,2-13.06,26.24,26.24,0,0,1,3.65-8.83,8.09,8.09,0,0,1,6.73-3.72,8.92,8.92,0,0,1,5.68,1.87,12.47,12.47,0,0,1,3.51,4.65,23.81,23.81,0,0,1,1.78,6.28,47.62,47.62,0,0,1,.53,7.2A80.33,80.33,0,0,1,56.55,45.7a109,109,0,0,1-3.66,14.11,125.8,125.8,0,0,1-5.34,13.37c-1.93,4.13-4,8.21-6.12,12.13v5.28c.47-.85,1-1.71,1.45-2.57,1-1.75,2.11-3.52,3.25-5.26s2.38-3.43,3.61-5A14.33,14.33,0,0,1,54,74.13a8.61,8.61,0,0,1,8.19-.31,7.67,7.67,0,0,1,2.69,2.4,10.56,10.56,0,0,1,1.48,3.24,14.77,14.77,0,0,1,.47,3.78,35.55,35.55,0,0,1-.29,4.07,41.09,41.09,0,0,0-.27,4.8,25.11,25.11,0,0,0,.15,2.76A9.2,9.2,0,0,0,66.91,97a2.35,2.35,0,0,0,.65,1,1.08,1.08,0,0,0,.8.22,4,4,0,0,0,2-.59,12.19,12.19,0,0,0,2.52-1.93,27,27,0,0,0,2.56-2.91c.83-1.09,1.59-2.19,2.27-3.28s1.27-2.16,1.79-3.17,1-1.9,1.28-2.6A4.4,4.4,0,0,1,82.3,82,20.76,20.76,0,0,1,86,77.12,19.39,19.39,0,0,1,92.27,73a16.14,16.14,0,0,1,10.9-.77,19.17,19.17,0,0,1,3.11,1.3,12.69,12.69,0,0,1,2.13,1.39l.79.69.13.14a4.54,4.54,0,0,1,1.16,3,4.36,4.36,0,0,1-1.24,3,4.19,4.19,0,0,1-3.07,1.33,4.33,4.33,0,0,1-3.11-1.27,4.28,4.28,0,0,0-.38-.31,5,5,0,0,0-.85-.5,6.88,6.88,0,0,0-1.41-.52,8.52,8.52,0,0,0-5.2.52,9.78,9.78,0,0,0-3.31,2.26,13.21,13.21,0,0,0-2.63,4,14.4,14.4,0,0,0-1.05,5.79,9.78,9.78,0,0,0,.21,2,4.66,4.66,0,0,0,.61,1.56,2.91,2.91,0,0,0,1,1,3.25,3.25,0,0,0,1.62.35,4,4,0,0,0,1.68-.53,7.68,7.68,0,0,0,2.21-1.84,14.64,14.64,0,0,0,2.13-3.47A17.55,17.55,0,0,0,99.07,87a4.33,4.33,0,0,1,1.49-2.71,4.4,4.4,0,0,1,2.93-1.08,4.07,4.07,0,0,1,3,1.3,4.51,4.51,0,0,1,1.26,2.81c0,.81.13,1.9.25,3.31a18.57,18.57,0,0,0,.76,3.86,8.48,8.48,0,0,0,1.59,3,2.44,2.44,0,0,0,2.1.85,4.08,4.08,0,0,0,2-.56A12.47,12.47,0,0,0,116.89,96a22.8,22.8,0,0,0,2.46-2.81c.82-1.09,1.57-2.21,2.24-3.31s1.28-2.21,1.8-3.24,1-2,1.35-2.77a4.38,4.38,0,0,1,4-2.58A4.14,4.14,0,0,1,132,82.73a4.55,4.55,0,0,1,1.12,3A4.06,4.06,0,0,1,132.76,87.34Z" transform="translate(0 0)"/><path d="M42.23,40.75c-.2,3.08-.36,6.3-.46,9.55s-.18,6.5-.22,9.56q0,3.18,0,6.08c.31-.76.61-1.52.91-2.28C43.81,60.1,45,56.5,46,53a92.36,92.36,0,0,0,2.36-10.8,74.33,74.33,0,0,0,.85-11.35c0-.63,0-1.68-.09-3.1a26,26,0,0,0-.53-4.12,11.21,11.21,0,0,0-1.21-3.35c-.36-.63-.67-.68-1-.68,0,0-.25.12-.62.8a18.59,18.59,0,0,0-1.56,4.51A63.76,63.76,0,0,0,43,32C42.71,34.71,42.44,37.67,42.23,40.75Z" transform="translate(0 0)"/></svg>